<svg xmlns="http://www.w3.org/2000/svg" xml:space="preserve" id="Layer_1" width="100%" x="0" y="0" version="1.1" viewBox="0 0 512 512"><path fill="#0747ab" d="M101.007 104.007s.012 0-.465.172c-.164.284-.327.568-.54.823 0 0 .03.048-.456.189-.18.276-.359.552-.539.816 0 0 .012 0-.47.167-.184.277-.369.554-.527.838 0 0-.005-.027-.503.123-.171.288-.343.575-.506.867 0 0-.003-.01-.499.132-.18.282-.361.565-.496.858 0 0-.035-.033-.753-.01-1.056 1.695-2.113 3.39-3.241 5.02 0 0 .06.076-.599.335a966.468 966.468 0 0 0-3.402 4.676s.003-.015-.49.156c-.188.283-.376.567-.972 1.036-.257.174-.44.406-1.095.745-.119.41-.238.82-.362 1.684 0 0-.058.449-.518.605-.289.188-.464.452-.575.765 0 0 .048.033-.63.26-.953 1.374-1.905 2.747-3.002 4.141 0 0 .019.146-.533.43a59.068 59.068 0 0 1-.826 2.172s.031.018-.616.27c-2.8 4.579-5.598 9.158-8.375 13.74 0 0 0-.023-.613.307-3.66 6.962-7.605 13.794-10.889 20.93-2.504 5.441-4.169 11.269-6.343 17.293 0 0-.122.373-.674.552.004.5.008 1.001-.199 1.724-.066.209-.04.405 0 .6 0 0 .01.081-.5.42-.173.73-.346 1.46-.688 2.604 0 0-.136.427-.649.636-.1.33-.2.66-.347 1.598-.04.403-.08.807-.802 1.585a613.984 613.984 0 0 0-2.155 10.426c-.049.434-.097.868-.626 1.46-.111.298-.223.596-.409 1.645-.052.752-.104 1.505-.706 2.614-.057.856-.114 1.71-.277 3.196-.065.42-.13.84-.864 1.685-.022 1.55-.045 3.1-.456 5.378-1.259 10.02-3.082 20.012-3.607 30.07-.463 8.866.34 17.82.942 26.71.353 5.205 1.406 10.36 1.962 16.378.966 4.767 1.93 9.535 2.987 14.856.022.373.044.746-.1 1.894.671 1.867 1.342 3.734 2.06 6.134.017.358.034.715-.109 1.824a144.9 144.9 0 0 1 2.129 4.99s.108.38-.064 1.164a765.858 765.858 0 0 1 3.065 8.828s.07.38-.078 1.038c.327.522.655 1.044 1.074 1.913 0 0 .085.349-.08 1.103 1.003 2.173 2.007 4.345 3.084 6.881 0 0 .082.361-.087 1.088 1 1.822 2.001 3.643 3.003 5.458 0 0-.008 0-.032.765a971.078 971.078 0 0 0 5.03 10.235s-.038.028.019.755c5.645 9.094 11.29 18.19 16.977 27.246 0 0-.047.038-.047.712a1331.73 1331.73 0 0 1 3.059 3.282l.028.705c4.327 5.497 8.347 11.275 13.054 16.424 6.797 7.435 14.08 14.427 21.208 21.554.377.377 1.243.264 1.96.522 0 0 .163-.021.424.572.759.74 1.518 1.481 2.493 2.757.493.26.987.518 1.216 1.02 0 0 .24.267.538.812 2 1.273 4.001 2.546 6.364 4.38 1.423 1.087 2.777 2.283 4.282 3.242 9.467 6.028 18.968 12.003 28.441 17.994 0 0 .002-.018.319.596 2.385 1.472 4.703 3.072 7.168 4.395 10.627 5.703 21.425 11 33.938 13.743 9.29 1.765 18.538 3.8 27.88 5.218 8.926 1.354 17.962 2.965 26.928 2.844 13.233-.18 26.442-1.853 39.67-2.781 13.954-.98 27.12-5.1 40.905-9.922 5.983-2.343 12.105-4.388 17.927-7.08 29.98-13.86 56.07-32.808 77.797-57.966 9.7-11.231 18.09-23.068 24.072-36.514 3.057-6.87 4.835-14.308 7.307-22.335.884-3.422 1.662-6.876 2.674-10.26 2.178-7.282 3.02-14.624 1.796-23.363-6.114 5.069-6.387 11.653-8.912 17.704-.08.58-.162 1.16-.38 2.187 0 0-.12.452-.624.65a18.55 18.55 0 0 0-.382 1.383s-.101.414-.731.74c-.8 1.927-1.599 3.855-2.357 5.794 0 0-.017-.039-.578.312a103.176 103.176 0 0 0-1.441 3.684s-.014-.052-.547.1c-.103.333-.206.665-.648 1.5-1.93 3.442-3.858 6.884-5.863 10.321 0 0-.006.076-.736.111-1.064 2.325-2.128 4.65-3.624 7.16-.275.18-.457.427-1.037.923-.183.285-.367.57-.553.868 0 0-.015-.01-.702-.012-.445.66-.89 1.32-1.282 2.024 0 0-.055-.041-.59.12-.443.937-.886 1.874-1.702 2.95-.326.53-.653 1.059-1.042 1.605 0 0-.06.002-.629.056-.47.316-.942.633-1.741.59 0 0-.338-.353-.224-1.027.35-1.061.699-2.122 1.622-3.56 1.729-3.33 4.183-6.479 5.062-10.02 3.854-15.535 7.468-31.139 10.703-46.814 1.2-5.819 1.122-11.9 1.56-18.655.023-1.06.047-2.121.845-3.304.695-1.88 1.957-3.75 1.99-5.641.167-9.437.01-18.88.066-29.116l-2.837-12.324c-.586.07-1.172.138-1.759.207a3708.077 3708.077 0 0 0-4.192 18.392c.015.453.03.905-.1 1.6l.203.199s.203-.2-.328-.27c-.23.425-.46.85-.778 1.545 0 0-.053.278-.74.688-.374 2.266-.748 4.532-1.25 7.255 0 0-.116.46-.744.847-1.48 4.224-2.959 8.448-4.391 12.69 0 0-.016-.048-.674.293a3208.342 3208.342 0 0 1-3.197 10.224s-.112.437-.726.787c-.89 1.738-1.83 3.451-2.659 5.218a450.676 450.676 0 0 0-4.73 10.492s-.005-.057-.665.178a621.919 621.919 0 0 0-3.328 6.826s.003-.03-.533.115c-.09.335-.18.67-.641 1.589-1.65 2.72-3.301 5.442-5.48 8.411-.832-.32-2.056-.408-2.412-1.01-.701-1.184-.92-2.654-1.559-4.715-1.628 2.796-2.55 4.714-3.77 6.418-6.509 9.08-13.093 18.108-19.623 27.168 0 0-.009-.03-.492.141a45.81 45.81 0 0 0-.512.853s-.001-.007-.475.165c-.168.28-.336.56-.532.829 0 0 .012.027-.467.18-.174.277-.348.554-.528.825 0 0 .006.006-.48.16a68.29 68.29 0 0 1-.52.84s.004.003-.471.169c-.17.278-.34.557-.532.829 0 0 .012.018-.6.26-1.803 1.552-3.606 3.103-6.108 4.753-5.066 3.98-10.049 8.07-15.214 11.916-12.648 9.42-25.98 17.648-40.886 23.107-6.1 2.234-12.118 4.691-18.751 7.122-.388.028-.776.055-1.987-.076-9.913 1.686-19.827 3.37-29.937 4.977 0 0-.21-.028-.635-.762-3.983-.13-7.965-.261-12.516-.293-.385-.003-.77-.006-1.45-.547-.376-.094-.753-.19-1.817-.32-.687.033-1.373.067-2.84-.058-2.413.038-4.825.076-8.039.044-1.07.024-2.14.047-3.712-.036-.167.035-.335.07-1.163.017-.443-.039-.886-.077-1.783-.708a4756.234 4756.234 0 0 0-23.202-7.382c-.77-.368-1.54-.737-2.57-1.652-.902-.79-1.805-1.582-2.93-2.81-.225-.306-.519-.403-1.324-.421 0 0-.444-.128-.642-.636-.328-.088-.656-.175-1.588-.325-.401-.057-.802-.114-1.41-.676-.327-.088-.656-.175-1.601-.317-.41-.05-.82-.099-1.592-.767a459.31 459.31 0 0 0-6.715-2.39s.034-.013-.364-.603A2060.53 2060.53 0 0 0 186 398s.008-.013-.281-.648c-5.28-3.131-10.56-6.263-15.99-9.813-.184-.248-.422-.419-.858-1.031a26.997 26.997 0 0 0-1.477-.333c-.17-.034-.341-.068-.726-.72-1.23-.794-2.459-1.588-3.921-2.841-.28-.192-.56-.383-.993-1.034a1.446 1.446 0 0 0-.751-.573s-.052.028-.19-.46a6.944 6.944 0 0 1-.814-.545s-.027.041-.275-.585a624.265 624.265 0 0 1-6.72-5.42s-.035.02-.312-.6c-5.583-6.45-11.166-12.9-16.693-19.396 0 0-.053.05-.062-.66-1.322-1.779-2.643-3.558-3.959-5.32 0 0 .017.003-.028-.659-.67-.768-1.34-1.536-1.952-2.363 0 0-.062.056-.114-.663a388.476 388.476 0 0 1-3.891-6.33s-.03.035-.084-.7c-.887-1.937-1.79-3.867-2.657-5.812-9.46-21.2-17.077-42.883-17.642-67.283.065-7.416.131-14.833.306-23.136.003-2.7.007-5.4.197-8.884.263-.953.646-1.891.772-2.862 2.273-17.55 7.574-34.161 15.468-49.963 5.222-10.452 10.517-20.868 16.337-31.662 1.471-1.56 2.953-3.108 4.411-4.679 6.866-7.39 13.014-15.651 20.738-21.994 15.058-12.366 32.085-21.464 50.828-27.443 14.49-4.623 29.115-7.503 44.317-7.526 7.996-.012 15.991-.15 24.877-.116 4.364.404 8.728.807 13.52 1.797 1.679.64 3.31 1.5 5.045 1.884 18.731 4.131 36.038 11.593 52.042 22.118 5.174 3.403 10.29 6.893 15.791 10.912 2.353 2.068 4.882 3.97 7.028 6.234 7.588 8.003 15.045 16.13 22.615 24.917 3.292 4.74 6.583 9.48 10.061 14.815.336.485.672.97 1.031 1.38 0 0-.075-.023-.03.613.332.487.664.974.954 1.394 0 0-.068.039-.013.797.332.905.618 1.83 1.004 2.711 4.044 9.249 8.205 18.448 12.103 27.758 1.315 3.14 1.998 6.547 2.925 9.844.87 3.093 1.68 6.203 2.515 9.305l1.67-.506c-1.524-15.62-6.09-30.348-14.085-44.673-.305-.466-.61-.932-.999-2.07-.4-1.037-.798-2.072-1.118-3.847-4.301-7.12-8.602-14.242-13.236-21.956-7.525-10.72-16.075-20.483-26.929-29.029-3.794-2.806-7.567-5.64-11.385-8.413-15.46-11.225-32.343-19.69-50.366-25.93 0 0-.023.01-.293-.607a156.41 156.41 0 0 1-3.674-1.424s-.034-.002-.152-.537c-.328-.08-.655-.16-1.589-.28-.403-.03-.806-.06-1.555-.74a250.63 250.63 0 0 1-5.219-1.302s-.462-.113-.882-.7c-1.246-1.48-2.44-3.009-3.758-4.422-.716-.768-1.575-1.784-2.486-1.922-3.446-.52-6.94-.728-11.14-1-.726-.026-1.452-.051-2.598-.647a83.271 83.271 0 0 1-3.389-.176c-.414.055-.83.11-1.987.024-.752.042-1.504.084-2.778.034-.174.032-.348.063-1.27-.044-.76-.05-1.52-.098-2.583-.684a42.62 42.62 0 0 1-3.53.591c-3.743-.04-7.486-.078-11.327-.475-.23.12-.458.239-1.581.455-2.39.036-4.778.071-8.074-.064-11.338 1.92-22.779 3.386-33.979 5.917-7.455 1.684-14.568 4.887-22.187 7.304-.245-.032-.49-.028-1.022-.452-1.68.707-3.362 1.414-5.659 2.436-1.703.893-3.325 2.147-5.138 2.558-1.308.297-2.871-.528-4.003-1.448 1.96-1.771 3.921-3.542 6.531-5.398.432-.06.864-.12 2.012-.077 10.744-4.608 21.36-9.552 32.28-13.697 6.427-2.44 13.335-3.609 20.781-5.303 6.743-.711 13.485-1.422 20.893-2.028.808-.208 1.617-.416 3.193-.802 1.045-.089 2.09-.178 3.865-.097l29.757 2.014c-.685-1.418-1.389-2.765-1.926-4.175-.049-.128.974-.664 2.317-.847 4.668.993 9.318 2.087 14.008 2.962 20.002 3.732 38.532 11.262 56.06 21.46 5.65 3.287 11.411 6.382 17.359 10.003.22.266.499.438 1.05 1.15.932.447 1.864.895 3.401 1.417.403.042.806.084 1.597.677 5.785 4.84 11.652 9.583 17.337 14.537 12.846 11.192 21.887 25.565 32.307 39.478.306.518.612 1.036.935 2.189.403.72.807 1.44 1.368 2.822 1.157 1.583 2.536 3.05 3.43 4.77 3.54 6.811 6.898 13.716 10.413 20.539.354.685 1.315 1.057 3.202 2.496-2.578-14.55-9.678-25.67-14.493-37.488 2.731-.156 2.88-1.206 1.138-3.076-1.097-1.177-2.048-2.49-3.07-4.475-3.658-5.404-6.836-11.224-11.074-16.128-9.41-10.89-19.21-21.464-30.96-30.944-1.327-.688-2.653-1.377-4.236-2.567-.274-.254-.548-.508-.898-1.228-.167-.297-.42-.468-.733-.567 0 0-.057.017-.186-.468a10.727 10.727 0 0 1-.808-.547s-.024.016-.177-.463A49.54 49.54 0 0 0 388 84s.005-.005-.13-.498c-.279-.18-.557-.361-.865-.5 0 0 .039-.036-.08-.548a12.433 12.433 0 0 1-.864-.52s-.019-.021-.249-.663A1005.5 1005.5 0 0 0 378 74.994s.029-.01-.13-.499c-.286-.167-.572-.334-.866-.5 0 0 0-.012-.232-.636-.95-.402-1.902-.804-3.016-1.67-.157-.3-.387-.528-.85-1.22-.335-.068-.67-.137-1.492-.261 0 0-.462-.165-.582-.66-.3-.098-.6-.195-1.386-.397 0 0-.48-.124-.63-.576-.208-.312-.49-.405-1.332-.412-.16-.055-.319-.11-.737-.801a264.107 264.107 0 0 0-4.764-2.348s.035-.008-.302-.619a1043.58 1043.58 0 0 0-7.7-3.377s.023.001-.3-.618c-1.908-.694-3.816-1.388-6.224-2.225-.166-.05-.332-.099-.647-.603-.21-.31-.493-.404-1.317-.397 0 0-.465-.13-.785-.75a453.787 453.787 0 0 0-4.244-1.26s-.438-.127-.757-.747c-1.27-.36-2.54-.722-4.251-1.242 0 0-.443-.153-.609-.632-.303-.07-.607-.139-1.55-.281-.42-.087-.84-.175-1.63-.844-1.254-.379-2.508-.758-4.176-1.256 0 0-.403-.15-.607-.686-.347-.104-.694-.209-1.797-.444-5.012-1.37-10.023-2.741-15.383-4.571a64.02 64.02 0 0 1-2.332-.242c-.446-.069-.892-.137-1.525-.698-.316-.108-.632-.215-1.518-.412-.382-.043-.764-.085-1.49-.753l-2.712-.238c-.668-.047-1.337-.095-2.332-.728a77.612 77.612 0 0 1-2.618-.196c-.689-.066-1.378-.133-2.378-.79-.637-.031-1.275-.062-2.617-.172-.707-.061-1.413-.123-2.452-.824-.936-.09-1.872-.182-2.796-.337 0 0-.064.015-.142-.337-.211.11-.422.22-1.346.39-.475-.04-.95-.082-1.88-.723-2.226-.365-4.452-.73-7.47-1.184-1.324-.06-2.648-.12-4.357-.894-1.582-.03-3.165-.058-5.212-.207 0 0-.464-.122-.832-.687-1.563-.16-3.125-.319-5.618-.394-4.695-.02-9.39-.042-14.465-.47a51.223 51.223 0 0 1-4.51 1.329c-2.362.37-4.724.74-7.757 1.205-.447.06-.894.12-2.21.026-1.33-.04-2.7-.315-3.982-.087-25.576 4.548-49.513 13.741-72.439 25.748-.757.397-1.18 1.43-2.503 2.23-6.08 3.506-12.276 6.831-18.188 10.6-2.625 1.674-4.677 4.246-7.385 6.516 0 0-.393.117-1.107-.1a345.051 345.051 0 0 1-4.53 4.968s.032.031-.685.11a1074.333 1074.333 0 0 0-8.31 7.89s-.021-.039-.712.016c-.767 1-1.534 2.001-2.274 3.005 0 0-.003-.027-.492.14-.178.285-.356.57-.508.857 0 0-.003-.026-.485.152-.181.282-.362.564-.515.85 0 0-.003-.029-.494.139a7.554 7.554 0 0 0-.504.862s-.011-.044-.498.135c-.177.286-.354.573-.503.863 0 0-.005-.028-.484.152-.177.282-.353.565-.53.835 0 0 .012 0-.469.17-.177.28-.354.561-.531.83z"/></svg>